<?xml version="1.0" encoding="UTF-8"?>
<svg id="Layer_1" data-name="Layer 1" xmlns="http://www.w3.org/2000/svg" viewBox="0 0 50.75 50.38">
  <defs>
    <style>
      .cls-1 {
        fill: #2867b2;
        stroke: #fff;
        stroke-miterlimit: 10;
        stroke-width: .75px;
      }

      .cls-2 {
        fill: #231f20;
      }
    </style>
  </defs>
  <path class="cls-2" d="m46.1,38.63c-.45,0-.83-.04-1.16-.11-.33-.08-.59-.21-.79-.4-.2-.19-.35-.41-.44-.65-.09-.25-.14-.5-.14-.77v-14.43c0-6.9-3.46-12.5-7.73-12.5h0c-4.27,0-7.73,5.6-7.73,12.5v12.95c0,.26-.04.52-.12.77-.08.25-.22.46-.4.65-.19.19-.44.32-.75.4-.32.08-.72.11-1.21.11-.44,0-.83-.04-1.14-.11-.32-.08-.57-.21-.77-.4-.2-.19-.35-.41-.46-.65-.11-.25-.16-.5-.16-.77v-12.95c0-6.9-3.46-12.5-7.73-12.5H4.17c-.16,0-.32-.08-.47-.23-.15-.15-.27-.42-.35-.8-.08-.38-.15-.87-.21-1.48-.06-.61-.09-1.4-.09-2.39,0-.91.03-1.69.09-2.33.06-.64.13-1.16.21-1.53.08-.38.2-.64.35-.8.15-.15.31-.23.47-.23h42.07c.91,0,1.55.39,1.91,1.16.36.78.54,1.6.54,2.47v33.06c0,.26-.05.52-.14.77-.09.25-.25.46-.46.65-.21.19-.49.32-.83.4-.34.08-.73.11-1.18.11Z"/>
  <path class="cls-2" d="m6.56,34.56c-.22,0-.42-.02-.58-.04-.16-.02-.3-.06-.41-.12-.11-.05-.21-.12-.29-.19-.09-.08-.21-.25-.37-.51s-.36-.72-.6-1.36c-.24-.64-.45-1.36-.64-2.15-.19-.8-.34-1.66-.45-2.6-.11-.93-.17-1.9-.16-2.9,0-2.06.23-3.88.65-5.46s1.05-2.91,1.86-3.97c.81-1.06,1.8-1.87,2.98-2.41,1.18-.55,2.53-.81,4.06-.79,1.74.02,3.24.38,4.49,1.09,1.25.7,2.27,1.66,3.06,2.87.79,1.21,1.38,2.62,1.76,4.25.38,1.63.56,3.38.56,5.27,0,.91-.06,1.8-.17,2.65-.11.86-.25,1.64-.42,2.36-.17.72-.37,1.36-.6,1.92-.23.56-.42.96-.58,1.22-.16.25-.28.43-.38.52-.09.09-.2.17-.33.23-.12.06-.27.1-.42.12-.16.02-.35.03-.59.02-.51,0-.87-.11-1.07-.3-.2-.19-.3-.43-.3-.7,0-.32.11-.68.33-1.09.22-.41.46-.93.72-1.57.26-.63.51-1.4.73-2.3.22-.9.33-1.96.34-3.19.01-2.52-.58-4.46-1.77-5.82-1.19-1.36-2.93-2.05-5.21-2.08-1.14-.01-2.14.15-3,.49-.86.34-1.58.84-2.16,1.52-.58.67-1.01,1.5-1.3,2.48-.29.98-.43,2.11-.44,3.38s.11,2.27.34,3.18c.23.91.49,1.71.77,2.38.28.67.53,1.24.76,1.69.23.46.34.81.34,1.07,0,.15-.03.28-.08.38-.05.1-.14.19-.27.27-.13.07-.28.12-.47.15-.19.03-.42.04-.68.04Z"/>
  <path class="cls-1" d="m6.57,28.2c-1.11-.49-2.28-1.01-3.52-1.56-1.52-.67-2.76-.69-2.59,1.68-1.5,3.77,16.17,7.19,17.3,8.46,6.07,2.73-15.88,7.43-16.12,8.39-1.64.09-1.78,5.15.08,4.8.33-.04.78-.17,1.33-.38,0,0,21.69-8.2,21.69-8.2,2.29-2.65,27.99,14.21,25.46,4.97,1.03-2.54-22.06-5.95-16.13-9.35.24-.11,14.91-5.51,15.12-5.64,1.48-.21,1.68-5.23-.17-4.72-17.06,6.77-21.14,9.28-31.81,5.79-.94-.31-1.94-.66-2.99-1.07-.1-.03-.19-.07-.29-.11-.69-.26-1.4-.55-2.15-.85-1.13-.46-2.32-.96-3.6-1.52"/>
  <ellipse class="cls-1" cx="25.37" cy="29.69" rx="1.88" ry="2.35"/>
  <ellipse cx="25.37" cy="29.69" rx=".83" ry="1.04"/>
  <path class="cls-2" d="m12.25,38.71c-.31-.08-.51-.27-.62-.56s-.14-.59-.11-.91l1.02-9.7c.1-.94-.34-1.81-.93-1.83-.18,0-.35,0-.52.02-.49.06-.93.27-1.32.63-.39.36-.71.87-.96,1.54-.26.67-.44,1.52-.55,2.56-.09.82-.12,1.56-.11,2.23.02.66.05,1.24.1,1.74.05.5.11.91.16,1.23.05.32.07.56.05.72,0,.09-.03.17-.07.23-.04.06-.08.11-.14.13-.06.02-.14.03-.24.02-.1,0-.22-.03-.36-.07-.1-.03-.19-.06-.26-.09-.07-.03-.14-.07-.2-.1-.06-.04-.11-.08-.15-.14-.04-.06-.08-.13-.12-.21s-.09-.31-.15-.68c-.06-.37-.11-.85-.15-1.42-.04-.58-.06-1.23-.05-1.98,0-.74.04-1.52.13-2.34.15-1.42.4-2.63.76-3.62.36-1,.81-1.8,1.37-2.39.56-.6,1.22-.98,1.98-1.15.76-.17,1.63-.12,2.59.14s1.72.67,2.41,1.25c.69.58,1.25,1.31,1.68,2.17.43.86.73,1.84.9,2.94.17,1.1.18,2.28.05,3.54-.14,1.35-.4,2.47-.77,3.35-.37.88-.81,1.56-1.33,2.05-.52.49-1.1.79-1.74.91-.64.12-1.31.08-2-.11l-.36-.1Zm1.09-4.69c-.1.98.38,1.87.99,1.83.52-.04.98-.24,1.37-.6.67-.62,1.08-1.69,1.24-3.22.08-.78.06-1.5-.06-2.14-.12-.64-.31-1.2-.57-1.68-.26-.48-.58-.88-.95-1.21,0,0,0,0-.01,0-.57-.5-1.28.09-1.39,1.13l-.62,5.9Z"/>
  <path class="cls-2" d="m42.62,20.98c.11.02.2.09.25.22.05.13.08.31.1.53.02.22.01.54,0,.95s-.05.72-.1.95c-.04.24-.09.4-.16.5-.06.1-.15.14-.27.12h0c-.48-.07-.79.77-.55,1.43.2.52.36,1.07.49,1.63.27,1.17.37,2.37.3,3.62-.06,1.1-.2,2.07-.43,2.93-.23.86-.52,1.58-.89,2.16-.37.58-.81,1-1.31,1.28-.51.28-1.07.37-1.69.28-.72-.1-1.34-.44-1.85-.99-.51-.56-.91-1.31-1.22-2.25-.3-.95-.51-2.08-.61-3.4-.1-1.32-.11-2.79-.02-4.41l.11-1.93c.03-.52-.21-.97-.53-1.02l-.42-.06c-.5-.07-.94-.05-1.33.06-.39.11-.72.34-1,.68-.27.34-.49.8-.65,1.39-.16.58-.27,1.31-.32,2.19-.05.94-.03,1.8.07,2.56.1.77.21,1.45.35,2.03.14.59.26,1.08.38,1.48.12.4.17.69.16.87,0,.12-.03.23-.08.32-.04.09-.1.16-.19.22-.08.06-.18.09-.3.11-.12.01-.25.01-.4-.01-.24-.03-.43-.09-.56-.16-.14-.07-.26-.22-.37-.45-.11-.23-.24-.61-.38-1.14-.14-.53-.26-1.14-.36-1.82-.11-.75-.19-1.58-.24-2.47-.03-.63-.03-1.26,0-1.88.08-1.62.26-2.97.54-4.05.27-1.02.62-1.82,1.06-2.41.44-.59.97-.99,1.59-1.19.62-.21,1.33-.25,2.13-.14l8.68,1.26Zm-5.51,3.03c-.32-.05-.6.34-.63.85l-.13,2.33c-.06,1.05-.05,1.97.01,2.75.07.79.19,1.45.38,1.99.19.54.42.95.71,1.23.29.28.63.45,1.02.51.67.1,1.22-.17,1.65-.8.43-.63.68-1.56.75-2.79.06-1-.05-1.95-.32-2.86-.24-.82-.62-1.7-1.14-2.63-.1-.18-.23-.28-.38-.3l-1.93-.28Z"/>
</svg>